<?xml version="1.0" encoding="UTF-8"?>
<svg xmlns="http://www.w3.org/2000/svg" xmlns:xlink="http://www.w3.org/1999/xlink" width="1200" height="300" viewBox="0 0 1200 300" version="1.1">
  <defs>
    <clipPath id="cardClip">
      <rect x="12" y="12" width="1176" height="276" rx="20" />
    </clipPath>
    <style type="text/css">*{stroke-linejoin: round; stroke-linecap: butt}</style>
  </defs>
  <rect x="12" y="12" width="1176" height="276" rx="20" fill="#ffffff" stroke="#d0d7de" stroke-width="2"/>
  <text x="44" y="60" font-family="Segoe UI, Arial, sans-serif" font-size="34" font-weight="700" fill="#0f172a">Cross-Entropy Loss</text>
  <text x="44" y="96" font-family="Segoe UI, Arial, sans-serif" font-size="17" fill="#475569">Penalize the model when it assigns low probability to the correct class.</text>
  <line x1="44" y1="136" x2="1156" y2="136" stroke="#e2e8f0" stroke-width="2"/>
  <rect x="44" y="154" width="1112" height="110" rx="14" fill="#f8fafc" stroke="#e2e8f0" stroke-width="1.5"/>
  <g transform="translate(484.54,172.00) scale(0.891566)">
<g xmlns="http://www.w3.org/2000/svg" xmlns:xlink="http://www.w3.org/1999/xlink" id="text_1">
   
   <g transform="translate(0 52) scale(0.3 -0.3)">
    <defs>
     <path id="STIXNonUnicode-Italic-e238" d="M 4070 915  L 4179 800  Q 3347 -45 2413 -45  Q 2157 -45 1850 26  Q 1395 122 1146 122  Q 1005 122 672 61  Q 339 0 192 0  L 230 154  Q 582 154 730 749  L 1178 2566  Q 1286 3008 1516 3353  Q 1747 3699 2025 3894  Q 2304 4090 2585 4189  Q 2867 4288 3123 4288  Q 3443 4288 3593 4083  Q 3744 3878 3744 3584  Q 3744 3347 3593 3200  Q 3443 3053 3226 3053  Q 3085 3053 2995 3149  Q 2906 3245 2906 3379  Q 2906 3482 2957 3552  Q 3008 3622 3065 3644  Q 3123 3667 3174 3705  Q 3226 3744 3226 3789  Q 3226 4032 2854 4032  Q 2522 4032 2310 3785  Q 2099 3539 1990 3132  Q 1882 2726 1795 2284  Q 1709 1843 1549 1363  Q 1389 883 1158 589  L 1158 563  Q 1363 704 1888 704  Q 2227 704 2460 544  Q 2694 384 2963 384  Q 3507 384 4070 915  z " transform="scale(0.015625)" />
     <path id="DejaVuSans-3d" d="M 678 2906  L 4684 2906  L 4684 2381  L 678 2381  L 678 2906  z M 678 1631  L 4684 1631  L 4684 1100  L 678 1100  L 678 1631  z " transform="scale(0.015625)" />
     <path id="DejaVuSans-2212" d="M 678 2272  L 4684 2272  L 4684 1741  L 678 1741  L 678 2272  z " transform="scale(0.015625)" />
     <path id="DejaVuSans-31" d="M 794 531  L 1825 531  L 1825 4091  L 703 3866  L 703 4441  L 1819 4666  L 2450 4666  L 2450 531  L 3481 531  L 3481 0  L 794 0  L 794 531  z " transform="scale(0.015625)" />
     <path id="DejaVuSans-Oblique-42" d="M 1081 4666  L 2694 4666  Q 3350 4666 3675 4422  Q 4000 4178 4000 3688  Q 4000 3238 3720 2911  Q 3441 2584 2988 2516  Q 3375 2428 3569 2181  Q 3763 1934 3763 1522  Q 3763 819 3242 409  Q 2722 0 1819 0  L 172 0  L 1081 4666  z M 1234 2228  L 903 519  L 1919 519  Q 2491 519 2800 781  Q 3109 1044 3109 1522  Q 3109 1891 2904 2059  Q 2700 2228 2247 2228  L 1234 2228  z M 1606 4147  L 1331 2741  L 2272 2741  Q 2775 2741 3058 2959  Q 3341 3178 3341 3566  Q 3341 3869 3150 4008  Q 2959 4147 2541 4147  L 1606 4147  z " transform="scale(0.015625)" />
     <path id="DejaVuSansDisplay-2211" d="M 244 6509  L 5803 6509  L 5803 5656  L 1566 5656  L 4534 2488  L 1469 -888  L 5919 -888  L 5919 -1738  L 109 -1738  L 109 -1078  L 3316 2463  L 244 5728  L 244 6509  z " transform="scale(0.015625)" />
     <path id="DejaVuSans-Oblique-62" d="M 3169 2138  Q 3169 2591 2961 2847  Q 2753 3103 2388 3103  Q 2122 3103 1889 2973  Q 1656 2844 1484 2597  Q 1303 2338 1198 1995  Q 1094 1653 1094 1313  Q 1094 881 1298 636  Q 1503 391 1863 391  Q 2134 391 2365 517  Q 2597 644 2772 891  Q 2950 1147 3059 1487  Q 3169 1828 3169 2138  z M 1381 2969  Q 1594 3256 1914 3420  Q 2234 3584 2584 3584  Q 3122 3584 3439 3221  Q 3756 2859 3756 2241  Q 3756 1734 3570 1259  Q 3384 784 3041 416  Q 2816 172 2522 40  Q 2228 -91 1906 -91  Q 1566 -91 1316 65  Q 1066 222 909 531  L 806 0  L 231 0  L 1178 4863  L 1753 4863  L 1381 2969  z " transform="scale(0.015625)" />
     <path id="DejaVuSans-6c" d="M 603 4863  L 1178 4863  L 1178 0  L 603 0  L 603 4863  z " transform="scale(0.015625)" />
     <path id="DejaVuSans-6f" d="M 1959 3097  Q 1497 3097 1228 2736  Q 959 2375 959 1747  Q 959 1119 1226 758  Q 1494 397 1959 397  Q 2419 397 2687 759  Q 2956 1122 2956 1747  Q 2956 2369 2687 2733  Q 2419 3097 1959 3097  z M 1959 3584  Q 2709 3584 3137 3096  Q 3566 2609 3566 1747  Q 3566 888 3137 398  Q 2709 -91 1959 -91  Q 1206 -91 779 398  Q 353 888 353 1747  Q 353 2609 779 3096  Q 1206 3584 1959 3584  z " transform="scale(0.015625)" />
     <path id="DejaVuSans-67" d="M 2906 1791  Q 2906 2416 2648 2759  Q 2391 3103 1925 3103  Q 1463 3103 1205 2759  Q 947 2416 947 1791  Q 947 1169 1205 825  Q 1463 481 1925 481  Q 2391 481 2648 825  Q 2906 1169 2906 1791  z M 3481 434  Q 3481 -459 3084 -895  Q 2688 -1331 1869 -1331  Q 1566 -1331 1297 -1286  Q 1028 -1241 775 -1147  L 775 -588  Q 1028 -725 1275 -790  Q 1522 -856 1778 -856  Q 2344 -856 2625 -561  Q 2906 -266 2906 331  L 2906 616  Q 2728 306 2450 153  Q 2172 0 1784 0  Q 1141 0 747 490  Q 353 981 353 1791  Q 353 2603 747 3093  Q 1141 3584 1784 3584  Q 2172 3584 2450 3431  Q 2728 3278 2906 2969  L 2906 3500  L 3481 3500  L 3481 434  z " transform="scale(0.015625)" />
     <path id="DejaVuSans-Oblique-70" d="M 3175 2156  Q 3175 2616 2975 2859  Q 2775 3103 2400 3103  Q 2144 3103 1911 2972  Q 1678 2841 1497 2591  Q 1319 2344 1212 1994  Q 1106 1644 1106 1300  Q 1106 863 1306 627  Q 1506 391 1875 391  Q 2147 391 2380 519  Q 2613 647 2778 891  Q 2956 1147 3065 1494  Q 3175 1841 3175 2156  z M 1394 2969  Q 1625 3272 1939 3428  Q 2253 3584 2638 3584  Q 3175 3584 3472 3232  Q 3769 2881 3769 2247  Q 3769 1728 3584 1258  Q 3400 788 3053 416  Q 2822 169 2531 39  Q 2241 -91 1919 -91  Q 1547 -91 1294 64  Q 1041 219 916 525  L 556 -1331  L -19 -1331  L 922 3500  L 1497 3500  L 1394 2969  z " transform="scale(0.015625)" />
     <path id="DejaVuSans-28" d="M 1984 4856  Q 1566 4138 1362 3434  Q 1159 2731 1159 2009  Q 1159 1288 1364 580  Q 1569 -128 1984 -844  L 1484 -844  Q 1016 -109 783 600  Q 550 1309 550 2009  Q 550 2706 781 3412  Q 1013 4119 1484 4856  L 1984 4856  z " transform="scale(0.015625)" />
     <path id="DejaVuSans-29" d="M 513 4856  L 1013 4856  Q 1481 4119 1714 3412  Q 1947 2706 1947 2009  Q 1947 1309 1714 600  Q 1481 -109 1013 -844  L 513 -844  Q 928 -128 1133 580  Q 1338 1288 1338 2009  Q 1338 2731 1133 3434  Q 928 4138 513 4856  z " transform="scale(0.015625)" />
     <path id="DejaVuSans-Oblique-79" d="M 1588 -325  Q 1188 -997 936 -1164  Q 684 -1331 294 -1331  L -159 -1331  L -63 -850  L 269 -850  Q 509 -850 678 -719  Q 847 -588 1056 -206  L 1234 128  L 459 3500  L 1069 3500  L 1650 819  L 3256 3500  L 3859 3500  L 1588 -325  z " transform="scale(0.015625)" />
    </defs>
    <use xlink:href="#STIXNonUnicode-Italic-e238" transform="translate(0 0.5125)" />
    <use xlink:href="#DejaVuSans-3d" transform="translate(88.78241 0.5125)" />
    <use xlink:href="#DejaVuSans-2212" transform="translate(192.053894 0.5125)" />
    <use xlink:href="#DejaVuSans-31" transform="translate(277.842957 44.309375) scale(0.7)" />
    <use xlink:href="#DejaVuSans-Oblique-42" transform="translate(275.842957 -37.975) scale(0.7)" />
    <use xlink:href="#DejaVuSans-Oblique-42" transform="translate(399.365417 120.965625) scale(0.7)" />
    <use xlink:href="#DejaVuSansDisplay-2211" transform="translate(378.365417 0.5125)" />
    <use xlink:href="#DejaVuSans-Oblique-62" transform="translate(336.365417 -98.582812) scale(0.7)" />
    <use xlink:href="#DejaVuSans-3d" transform="translate(394.436707 -98.582812) scale(0.7)" />
    <use xlink:href="#DejaVuSans-31" transform="translate(466.726746 -98.582812) scale(0.7)" />
    <use xlink:href="#DejaVuSans-6c" transform="translate(511.262878 0.5125)" />
    <use xlink:href="#DejaVuSans-6f" transform="translate(539.046082 0.5125)" />
    <use xlink:href="#DejaVuSans-67" transform="translate(600.227722 0.5125)" />
    <use xlink:href="#DejaVuSans-Oblique-70" transform="translate(679.939961 0.5125)" />
    <use xlink:href="#DejaVuSans-28" transform="translate(748.066419 58.929219) scale(0.7)" />
    <use xlink:href="#DejaVuSans-Oblique-62" transform="translate(775.37599 58.929219) scale(0.7)" />
    <use xlink:href="#DejaVuSans-29" transform="translate(819.809583 58.929219) scale(0.7)" />
    <use xlink:href="#DejaVuSans-Oblique-79" transform="translate(743.416523 -26.83125) scale(0.7)" />
    <use xlink:href="#DejaVuSans-28" transform="translate(787.968607 -0.034375) scale(0.49)" />
    <use xlink:href="#DejaVuSans-Oblique-62" transform="translate(807.085306 -0.034375) scale(0.49)" />
    <use xlink:href="#DejaVuSans-29" transform="translate(838.188822 -0.034375) scale(0.49)" />
    <path d="M 275.842957 19.309375  L 275.842957 25.559375  L 323.865417 25.559375  L 323.865417 19.309375  L 275.842957 19.309375  z " />
   </g>
  </g>
 
  </g>
</svg>
