<?xml version="1.0" encoding="UTF-8"?>
<svg xmlns="http://www.w3.org/2000/svg" xmlns:xlink="http://www.w3.org/1999/xlink" width="1200" height="300" viewBox="0 0 1200 300" version="1.1">
  <defs>
    <clipPath id="cardClip">
      <rect x="12" y="12" width="1176" height="276" rx="20" />
    </clipPath>
    <style type="text/css">*{stroke-linejoin: round; stroke-linecap: butt}</style>
  </defs>
  <rect x="12" y="12" width="1176" height="276" rx="20" fill="#ffffff" stroke="#d0d7de" stroke-width="2"/>
  <text x="44" y="60" font-family="Segoe UI, Arial, sans-serif" font-size="34" font-weight="700" fill="#0f172a">KAN Edge Function</text>
  <text x="44" y="96" font-family="Segoe UI, Arial, sans-serif" font-size="17" fill="#475569">Blend a smooth base activation with a learnable spline correction on</text>
  <text x="44" y="118" font-family="Segoe UI, Arial, sans-serif" font-size="17" fill="#475569">each connection.</text>
  <line x1="44" y1="136" x2="1156" y2="136" stroke="#e2e8f0" stroke-width="2"/>
  <rect x="44" y="154" width="1112" height="110" rx="14" fill="#f8fafc" stroke="#e2e8f0" stroke-width="1.5"/>
  <g transform="translate(74.00,172.17) scale(1.888689)">
<g xmlns="http://www.w3.org/2000/svg" xmlns:xlink="http://www.w3.org/1999/xlink" id="text_1">
   
   <g transform="translate(0 28) scale(0.3 -0.3)">
    <defs>
     <path id="DejaVuSans-Oblique-3d5" d="M 2991 4863  L 2738 3572  Q 3363 3572 3684 3094  Q 4016 2606 3850 1747  Q 3681 888 3159 400  Q 2653 -78 2028 -78  L 1784 -1331  L 1213 -1331  L 1456 -78  Q 834 -78 509 400  Q 178 888 347 1747  Q 513 2606 1034 3094  Q 1544 3572 2166 3572  L 2419 4863  L 2991 4863  z M 2128 434  Q 2481 434 2784 756  Q 3116 1116 3244 1747  Q 3369 2372 3169 2738  Q 2991 3059 2638 3059  L 2128 434  z M 1556 434  L 2066 3059  Q 1716 3059 1413 2738  Q 1072 2372 953 1747  Q 834 1116 1028 756  Q 1203 434 1556 434  z " transform="scale(0.015625)" />
     <path id="DejaVuSans-Oblique-69" d="M 1172 4863  L 1747 4863  L 1606 4134  L 1031 4134  L 1172 4863  z M 909 3500  L 1484 3500  L 800 0  L 225 0  L 909 3500  z " transform="scale(0.015625)" />
     <path id="DejaVuSans-2c" d="M 750 794  L 1409 794  L 1409 256  L 897 -744  L 494 -744  L 750 256  L 750 794  z " transform="scale(0.015625)" />
     <path id="DejaVuSans-Oblique-6f" d="M 1625 -91  Q 1009 -91 651 289  Q 294 669 294 1325  Q 294 1706 417 2101  Q 541 2497 738 2766  Q 1047 3184 1428 3384  Q 1809 3584 2291 3584  Q 2888 3584 3255 3212  Q 3622 2841 3622 2241  Q 3622 1825 3500 1412  Q 3378 1000 3181 728  Q 2875 309 2494 109  Q 2113 -91 1625 -91  z M 891 1344  Q 891 869 1089 633  Q 1288 397 1691 397  Q 2269 397 2648 901  Q 3028 1406 3028 2181  Q 3028 2634 2825 2865  Q 2622 3097 2228 3097  Q 1903 3097 1650 2945  Q 1397 2794 1197 2484  Q 1050 2253 970 1956  Q 891 1659 891 1344  z " transform="scale(0.015625)" />
     <path id="DejaVuSans-28" d="M 1984 4856  Q 1566 4138 1362 3434  Q 1159 2731 1159 2009  Q 1159 1288 1364 580  Q 1569 -128 1984 -844  L 1484 -844  Q 1016 -109 783 600  Q 550 1309 550 2009  Q 550 2706 781 3412  Q 1013 4119 1484 4856  L 1984 4856  z " transform="scale(0.015625)" />
     <path id="DejaVuSans-Oblique-78" d="M 3841 3500  L 2234 1784  L 3219 0  L 2559 0  L 1819 1388  L 531 0  L -166 0  L 1556 1844  L 641 3500  L 1300 3500  L 1972 2234  L 3144 3500  L 3841 3500  z " transform="scale(0.015625)" />
     <path id="DejaVuSans-29" d="M 513 4856  L 1013 4856  Q 1481 4119 1714 3412  Q 1947 2706 1947 2009  Q 1947 1309 1714 600  Q 1481 -109 1013 -844  L 513 -844  Q 928 -128 1133 580  Q 1338 1288 1338 2009  Q 1338 2731 1133 3434  Q 928 4138 513 4856  z " transform="scale(0.015625)" />
     <path id="DejaVuSans-3d" d="M 678 2906  L 4684 2906  L 4684 2381  L 678 2381  L 678 2906  z M 678 1631  L 4684 1631  L 4684 1100  L 678 1100  L 678 1631  z " transform="scale(0.015625)" />
     <path id="DejaVuSans-Oblique-73" d="M 3200 3397  L 3091 2853  Q 2863 2978 2609 3040  Q 2356 3103 2088 3103  Q 1634 3103 1373 2948  Q 1113 2794 1113 2528  Q 1113 2219 1719 2053  Q 1766 2041 1788 2034  L 1972 1978  Q 2547 1819 2739 1644  Q 2931 1469 2931 1166  Q 2931 609 2489 259  Q 2047 -91 1331 -91  Q 1053 -91 747 -37  Q 441 16 72 128  L 184 722  Q 500 559 806 475  Q 1113 391 1394 391  Q 1816 391 2080 572  Q 2344 753 2344 1031  Q 2344 1331 1650 1516  L 1591 1531  L 1394 1581  Q 956 1697 753 1886  Q 550 2075 550 2369  Q 550 2928 970 3256  Q 1391 3584 2113 3584  Q 2397 3584 2667 3537  Q 2938 3491 3200 3397  z " transform="scale(0.015625)" />
     <path id="DejaVuSans-62" d="M 3116 1747  Q 3116 2381 2855 2742  Q 2594 3103 2138 3103  Q 1681 3103 1420 2742  Q 1159 2381 1159 1747  Q 1159 1113 1420 752  Q 1681 391 2138 391  Q 2594 391 2855 752  Q 3116 1113 3116 1747  z M 1159 2969  Q 1341 3281 1617 3432  Q 1894 3584 2278 3584  Q 2916 3584 3314 3078  Q 3713 2572 3713 1747  Q 3713 922 3314 415  Q 2916 -91 2278 -91  Q 1894 -91 1617 61  Q 1341 213 1159 525  L 1159 0  L 581 0  L 581 4863  L 1159 4863  L 1159 2969  z " transform="scale(0.015625)" />
     <path id="DejaVuSans-61" d="M 2194 1759  Q 1497 1759 1228 1600  Q 959 1441 959 1056  Q 959 750 1161 570  Q 1363 391 1709 391  Q 2188 391 2477 730  Q 2766 1069 2766 1631  L 2766 1759  L 2194 1759  z M 3341 1997  L 3341 0  L 2766 0  L 2766 531  Q 2569 213 2275 61  Q 1981 -91 1556 -91  Q 1019 -91 701 211  Q 384 513 384 1019  Q 384 1609 779 1909  Q 1175 2209 1959 2209  L 2766 2209  L 2766 2266  Q 2766 2663 2505 2880  Q 2244 3097 1772 3097  Q 1472 3097 1187 3025  Q 903 2953 641 2809  L 641 3341  Q 956 3463 1253 3523  Q 1550 3584 1831 3584  Q 2591 3584 2966 3190  Q 3341 2797 3341 1997  z " transform="scale(0.015625)" />
     <path id="DejaVuSans-73" d="M 2834 3397  L 2834 2853  Q 2591 2978 2328 3040  Q 2066 3103 1784 3103  Q 1356 3103 1142 2972  Q 928 2841 928 2578  Q 928 2378 1081 2264  Q 1234 2150 1697 2047  L 1894 2003  Q 2506 1872 2764 1633  Q 3022 1394 3022 966  Q 3022 478 2636 193  Q 2250 -91 1575 -91  Q 1294 -91 989 -36  Q 684 19 347 128  L 347 722  Q 666 556 975 473  Q 1284 391 1588 391  Q 1994 391 2212 530  Q 2431 669 2431 922  Q 2431 1156 2273 1281  Q 2116 1406 1581 1522  L 1381 1569  Q 847 1681 609 1914  Q 372 2147 372 2553  Q 372 3047 722 3315  Q 1072 3584 1716 3584  Q 2034 3584 2315 3537  Q 2597 3491 2834 3397  z " transform="scale(0.015625)" />
     <path id="DejaVuSans-65" d="M 3597 1894  L 3597 1613  L 953 1613  Q 991 1019 1311 708  Q 1631 397 2203 397  Q 2534 397 2845 478  Q 3156 559 3463 722  L 3463 178  Q 3153 47 2828 -22  Q 2503 -91 2169 -91  Q 1331 -91 842 396  Q 353 884 353 1716  Q 353 2575 817 3079  Q 1281 3584 2069 3584  Q 2775 3584 3186 3129  Q 3597 2675 3597 1894  z M 3022 2063  Q 3016 2534 2758 2815  Q 2500 3097 2075 3097  Q 1594 3097 1305 2825  Q 1016 2553 972 2059  L 3022 2063  z " transform="scale(0.015625)" />
     <path id="DejaVuSans-53" d="M 3425 4513  L 3425 3897  Q 3066 4069 2747 4153  Q 2428 4238 2131 4238  Q 1616 4238 1336 4038  Q 1056 3838 1056 3469  Q 1056 3159 1242 3001  Q 1428 2844 1947 2747  L 2328 2669  Q 3034 2534 3370 2195  Q 3706 1856 3706 1288  Q 3706 609 3251 259  Q 2797 -91 1919 -91  Q 1588 -91 1214 -16  Q 841 59 441 206  L 441 856  Q 825 641 1194 531  Q 1563 422 1919 422  Q 2459 422 2753 634  Q 3047 847 3047 1241  Q 3047 1584 2836 1778  Q 2625 1972 2144 2069  L 1759 2144  Q 1053 2284 737 2584  Q 422 2884 422 3419  Q 422 4038 858 4394  Q 1294 4750 2059 4750  Q 2388 4750 2728 4690  Q 3069 4631 3425 4513  z " transform="scale(0.015625)" />
     <path id="DejaVuSans-69" d="M 603 3500  L 1178 3500  L 1178 0  L 603 0  L 603 3500  z M 603 4863  L 1178 4863  L 1178 4134  L 603 4134  L 603 4863  z " transform="scale(0.015625)" />
     <path id="DejaVuSans-4c" d="M 628 4666  L 1259 4666  L 1259 531  L 3531 531  L 3531 0  L 628 0  L 628 4666  z " transform="scale(0.015625)" />
     <path id="DejaVuSans-55" d="M 556 4666  L 1191 4666  L 1191 1831  Q 1191 1081 1462 751  Q 1734 422 2344 422  Q 2950 422 3222 751  Q 3494 1081 3494 1831  L 3494 4666  L 4128 4666  L 4128 1753  Q 4128 841 3676 375  Q 3225 -91 2344 -91  Q 1459 -91 1007 375  Q 556 841 556 1753  L 556 4666  z " transform="scale(0.015625)" />
     <path id="DejaVuSans-2b" d="M 2944 4013  L 2944 2272  L 4684 2272  L 4684 1741  L 2944 1741  L 2944 0  L 2419 0  L 2419 1741  L 678 1741  L 678 2272  L 2419 2272  L 2419 4013  L 2944 4013  z " transform="scale(0.015625)" />
     <path id="DejaVuSans-70" d="M 1159 525  L 1159 -1331  L 581 -1331  L 581 3500  L 1159 3500  L 1159 2969  Q 1341 3281 1617 3432  Q 1894 3584 2278 3584  Q 2916 3584 3314 3078  Q 3713 2572 3713 1747  Q 3713 922 3314 415  Q 2916 -91 2278 -91  Q 1894 -91 1617 61  Q 1341 213 1159 525  z M 3116 1747  Q 3116 2381 2855 2742  Q 2594 3103 2138 3103  Q 1681 3103 1420 2742  Q 1159 2381 1159 1747  Q 1159 1113 1420 752  Q 1681 391 2138 391  Q 2594 391 2855 752  Q 3116 1113 3116 1747  z " transform="scale(0.015625)" />
     <path id="DejaVuSans-6c" d="M 603 4863  L 1178 4863  L 1178 0  L 603 0  L 603 4863  z " transform="scale(0.015625)" />
     <path id="DejaVuSans-6e" d="M 3513 2113  L 3513 0  L 2938 0  L 2938 2094  Q 2938 2591 2744 2837  Q 2550 3084 2163 3084  Q 1697 3084 1428 2787  Q 1159 2491 1159 1978  L 1159 0  L 581 0  L 581 3500  L 1159 3500  L 1159 2956  Q 1366 3272 1645 3428  Q 1925 3584 2291 3584  Q 2894 3584 3203 3211  Q 3513 2838 3513 2113  z " transform="scale(0.015625)" />
    </defs>
    <use xlink:href="#DejaVuSans-Oblique-3d5" transform="translate(0 0.470313)" />
    <use xlink:href="#DejaVuSans-Oblique-69" transform="translate(65.966797 -15.935937) scale(0.7)" />
    <use xlink:href="#DejaVuSans-2c" transform="translate(85.415039 -15.935937) scale(0.7)" />
    <use xlink:href="#DejaVuSans-Oblique-6f" transform="translate(121.303711 -15.935937) scale(0.7)" />
    <use xlink:href="#DejaVuSans-28" transform="translate(166.865234 0.470313)" />
    <use xlink:href="#DejaVuSans-Oblique-78" transform="translate(205.878906 0.470313)" />
    <use xlink:href="#DejaVuSans-29" transform="translate(265.058594 0.470313)" />
    <use xlink:href="#DejaVuSans-3d" transform="translate(323.554688 0.470313)" />
    <use xlink:href="#DejaVuSans-Oblique-73" transform="translate(426.826172 0.470313)" />
    <use xlink:href="#DejaVuSans-62" transform="translate(483.575677 39.810938) scale(0.7)" />
    <use xlink:href="#DejaVuSans-61" transform="translate(528.009271 39.810938) scale(0.7)" />
    <use xlink:href="#DejaVuSans-73" transform="translate(570.904779 39.810938) scale(0.7)" />
    <use xlink:href="#DejaVuSans-65" transform="translate(607.374505 39.810938) scale(0.7)" />
    <use xlink:href="#DejaVuSans-Oblique-69" transform="translate(478.925781 -26.873437) scale(0.7)" />
    <use xlink:href="#DejaVuSans-2c" transform="translate(498.374023 -26.873437) scale(0.7)" />
    <use xlink:href="#DejaVuSans-Oblique-6f" transform="translate(534.262695 -26.873437) scale(0.7)" />
    <use xlink:href="#DejaVuSans-53" transform="translate(669.410963 0.470313)" />
    <use xlink:href="#DejaVuSans-69" transform="translate(732.887525 0.470313)" />
    <use xlink:href="#DejaVuSans-4c" transform="translate(760.670728 0.470313)" />
    <use xlink:href="#DejaVuSans-55" transform="translate(816.383619 0.470313)" />
    <use xlink:href="#DejaVuSans-28" transform="translate(889.576978 0.470313)" />
    <use xlink:href="#DejaVuSans-Oblique-78" transform="translate(928.59065 0.470313)" />
    <use xlink:href="#DejaVuSans-29" transform="translate(987.770338 0.470313)" />
    <use xlink:href="#DejaVuSans-2b" transform="translate(1046.266431 0.470313)" />
    <use xlink:href="#DejaVuSans-Oblique-73" transform="translate(1149.537916 0.470313)" />
    <use xlink:href="#DejaVuSans-73" transform="translate(1206.287421 53.373438) scale(0.7)" />
    <use xlink:href="#DejaVuSans-70" transform="translate(1242.757148 53.373438) scale(0.7)" />
    <use xlink:href="#DejaVuSans-Oblique-69" transform="translate(1201.637525 -26.873437) scale(0.7)" />
    <use xlink:href="#DejaVuSans-2c" transform="translate(1221.085767 -26.873437) scale(0.7)" />
    <use xlink:href="#DejaVuSans-Oblique-6f" transform="translate(1256.974439 -26.873437) scale(0.7)" />
    <use xlink:href="#DejaVuSans-73" transform="translate(1318.771639 0.470313)" />
    <use xlink:href="#DejaVuSans-70" transform="translate(1370.871248 0.470313)" />
    <use xlink:href="#DejaVuSans-6c" transform="translate(1434.347811 0.470313)" />
    <use xlink:href="#DejaVuSans-69" transform="translate(1462.131014 0.470313)" />
    <use xlink:href="#DejaVuSans-6e" transform="translate(1489.914217 0.470313)" />
    <use xlink:href="#DejaVuSans-65" transform="translate(1553.293123 0.470313)" />
    <use xlink:href="#DejaVuSans-Oblique-69" transform="translate(1615.773592 -15.935937) scale(0.7)" />
    <use xlink:href="#DejaVuSans-2c" transform="translate(1635.221834 -15.935937) scale(0.7)" />
    <use xlink:href="#DejaVuSans-Oblique-6f" transform="translate(1671.110506 -15.935937) scale(0.7)" />
    <use xlink:href="#DejaVuSans-28" transform="translate(1716.67203 0.470313)" />
    <use xlink:href="#DejaVuSans-Oblique-78" transform="translate(1755.685701 0.470313)" />
    <use xlink:href="#DejaVuSans-29" transform="translate(1814.865389 0.470313)" />
   </g>
  </g>
 
  </g>
</svg>
