<?xml version="1.0" encoding="UTF-8"?>
<svg xmlns="http://www.w3.org/2000/svg" xmlns:xlink="http://www.w3.org/1999/xlink" width="1200" height="300" viewBox="0 0 1200 300" version="1.1">
  <defs>
    <clipPath id="cardClip">
      <rect x="12" y="12" width="1176" height="276" rx="20" />
    </clipPath>
    <style type="text/css">*{stroke-linejoin: round; stroke-linecap: butt}</style>
  </defs>
  <rect x="12" y="12" width="1176" height="276" rx="20" fill="#ffffff" stroke="#d0d7de" stroke-width="2"/>
  <text x="44" y="60" font-family="Segoe UI, Arial, sans-serif" font-size="34" font-weight="700" fill="#0f172a">KAN Layer Output</text>
  <text x="44" y="96" font-family="Segoe UI, Arial, sans-serif" font-size="17" fill="#475569">Each output channel sums learned one-dimensional edge functions over all</text>
  <text x="44" y="118" font-family="Segoe UI, Arial, sans-serif" font-size="17" fill="#475569">input dimensions.</text>
  <line x1="44" y1="136" x2="1156" y2="136" stroke="#e2e8f0" stroke-width="2"/>
  <rect x="44" y="154" width="1112" height="110" rx="14" fill="#f8fafc" stroke="#e2e8f0" stroke-width="1.5"/>
  <g transform="translate(504.34,172.00) scale(0.902439)">
<g xmlns="http://www.w3.org/2000/svg" xmlns:xlink="http://www.w3.org/1999/xlink" id="text_1">
   
   <g transform="translate(0 52) scale(0.3 -0.3)">
    <defs>
     <path id="DejaVuSans-Oblique-79" d="M 1588 -325  Q 1188 -997 936 -1164  Q 684 -1331 294 -1331  L -159 -1331  L -63 -850  L 269 -850  Q 509 -850 678 -719  Q 847 -588 1056 -206  L 1234 128  L 459 3500  L 1069 3500  L 1650 819  L 3256 3500  L 3859 3500  L 1588 -325  z " transform="scale(0.015625)" />
     <path id="DejaVuSans-Oblique-6f" d="M 1625 -91  Q 1009 -91 651 289  Q 294 669 294 1325  Q 294 1706 417 2101  Q 541 2497 738 2766  Q 1047 3184 1428 3384  Q 1809 3584 2291 3584  Q 2888 3584 3255 3212  Q 3622 2841 3622 2241  Q 3622 1825 3500 1412  Q 3378 1000 3181 728  Q 2875 309 2494 109  Q 2113 -91 1625 -91  z M 891 1344  Q 891 869 1089 633  Q 1288 397 1691 397  Q 2269 397 2648 901  Q 3028 1406 3028 2181  Q 3028 2634 2825 2865  Q 2622 3097 2228 3097  Q 1903 3097 1650 2945  Q 1397 2794 1197 2484  Q 1050 2253 970 1956  Q 891 1659 891 1344  z " transform="scale(0.015625)" />
     <path id="DejaVuSans-3d" d="M 678 2906  L 4684 2906  L 4684 2381  L 678 2381  L 678 2906  z M 678 1631  L 4684 1631  L 4684 1100  L 678 1100  L 678 1631  z " transform="scale(0.015625)" />
     <path id="DejaVuSans-Oblique-49" d="M 1081 4666  L 1716 4666  L 806 0  L 172 0  L 1081 4666  z " transform="scale(0.015625)" />
     <path id="DejaVuSansDisplay-2211" d="M 244 6509  L 5803 6509  L 5803 5656  L 1566 5656  L 4534 2488  L 1469 -888  L 5919 -888  L 5919 -1738  L 109 -1738  L 109 -1078  L 3316 2463  L 244 5728  L 244 6509  z " transform="scale(0.015625)" />
     <path id="DejaVuSans-Oblique-69" d="M 1172 4863  L 1747 4863  L 1606 4134  L 1031 4134  L 1172 4863  z M 909 3500  L 1484 3500  L 800 0  L 225 0  L 909 3500  z " transform="scale(0.015625)" />
     <path id="DejaVuSans-31" d="M 794 531  L 1825 531  L 1825 4091  L 703 3866  L 703 4441  L 1819 4666  L 2450 4666  L 2450 531  L 3481 531  L 3481 0  L 794 0  L 794 531  z " transform="scale(0.015625)" />
     <path id="DejaVuSans-Oblique-3d5" d="M 2991 4863  L 2738 3572  Q 3363 3572 3684 3094  Q 4016 2606 3850 1747  Q 3681 888 3159 400  Q 2653 -78 2028 -78  L 1784 -1331  L 1213 -1331  L 1456 -78  Q 834 -78 509 400  Q 178 888 347 1747  Q 513 2606 1034 3094  Q 1544 3572 2166 3572  L 2419 4863  L 2991 4863  z M 2128 434  Q 2481 434 2784 756  Q 3116 1116 3244 1747  Q 3369 2372 3169 2738  Q 2991 3059 2638 3059  L 2128 434  z M 1556 434  L 2066 3059  Q 1716 3059 1413 2738  Q 1072 2372 953 1747  Q 834 1116 1028 756  Q 1203 434 1556 434  z " transform="scale(0.015625)" />
     <path id="DejaVuSans-2c" d="M 750 794  L 1409 794  L 1409 256  L 897 -744  L 494 -744  L 750 256  L 750 794  z " transform="scale(0.015625)" />
     <path id="DejaVuSans-28" d="M 1984 4856  Q 1566 4138 1362 3434  Q 1159 2731 1159 2009  Q 1159 1288 1364 580  Q 1569 -128 1984 -844  L 1484 -844  Q 1016 -109 783 600  Q 550 1309 550 2009  Q 550 2706 781 3412  Q 1013 4119 1484 4856  L 1984 4856  z " transform="scale(0.015625)" />
     <path id="DejaVuSans-Oblique-78" d="M 3841 3500  L 2234 1784  L 3219 0  L 2559 0  L 1819 1388  L 531 0  L -166 0  L 1556 1844  L 641 3500  L 1300 3500  L 1972 2234  L 3144 3500  L 3841 3500  z " transform="scale(0.015625)" />
     <path id="DejaVuSans-29" d="M 513 4856  L 1013 4856  Q 1481 4119 1714 3412  Q 1947 2706 1947 2009  Q 1947 1309 1714 600  Q 1481 -109 1013 -844  L 513 -844  Q 928 -128 1133 580  Q 1338 1288 1338 2009  Q 1338 2731 1133 3434  Q 928 4138 513 4856  z " transform="scale(0.015625)" />
    </defs>
    <use xlink:href="#DejaVuSans-Oblique-79" transform="translate(0 0.5125)" />
    <use xlink:href="#DejaVuSans-Oblique-6f" transform="translate(59.179688 -15.89375) scale(0.7)" />
    <use xlink:href="#DejaVuSans-3d" transform="translate(124.223633 0.5125)" />
    <use xlink:href="#DejaVuSans-Oblique-49" transform="translate(292.495117 120.965625) scale(0.7)" />
    <use xlink:href="#DejaVuSansDisplay-2211" transform="translate(257.495117 0.5125)" />
    <use xlink:href="#DejaVuSans-Oblique-69" transform="translate(227.495117 -98.582812) scale(0.7)" />
    <use xlink:href="#DejaVuSans-3d" transform="translate(260.581055 -98.582812) scale(0.7)" />
    <use xlink:href="#DejaVuSans-31" transform="translate(332.871094 -98.582812) scale(0.7)" />
    <use xlink:href="#DejaVuSans-Oblique-3d5" transform="translate(377.407227 0.5125)" />
    <use xlink:href="#DejaVuSans-Oblique-69" transform="translate(443.374023 -15.89375) scale(0.7)" />
    <use xlink:href="#DejaVuSans-2c" transform="translate(462.822266 -15.89375) scale(0.7)" />
    <use xlink:href="#DejaVuSans-Oblique-6f" transform="translate(498.710938 -15.89375) scale(0.7)" />
    <use xlink:href="#DejaVuSans-28" transform="translate(544.272461 0.5125)" />
    <use xlink:href="#DejaVuSans-Oblique-78" transform="translate(583.286133 0.5125)" />
    <use xlink:href="#DejaVuSans-Oblique-69" transform="translate(642.46582 -15.89375) scale(0.7)" />
    <use xlink:href="#DejaVuSans-29" transform="translate(664.648438 0.5125)" />
   </g>
  </g>
 
  </g>
</svg>
