<?xml version="1.0" encoding="UTF-8"?>
<svg xmlns="http://www.w3.org/2000/svg" xmlns:xlink="http://www.w3.org/1999/xlink" width="1200" height="300" viewBox="0 0 1200 300" version="1.1">
  <defs>
    <clipPath id="cardClip">
      <rect x="12" y="12" width="1176" height="276" rx="20" />
    </clipPath>
    <style type="text/css">*{stroke-linejoin: round; stroke-linecap: butt}</style>
  </defs>
  <rect x="12" y="12" width="1176" height="276" rx="20" fill="#ffffff" stroke="#d0d7de" stroke-width="2"/>
  <text x="44" y="60" font-family="Segoe UI, Arial, sans-serif" font-size="34" font-weight="700" fill="#0f172a">Min-Max Feature Scaling</text>
  <text x="44" y="96" font-family="Segoe UI, Arial, sans-serif" font-size="17" fill="#475569">Normalize each feature using train-set statistics before it reaches the</text>
  <text x="44" y="118" font-family="Segoe UI, Arial, sans-serif" font-size="17" fill="#475569">spline grid.</text>
  <line x1="44" y1="136" x2="1156" y2="136" stroke="#e2e8f0" stroke-width="2"/>
  <rect x="44" y="154" width="1112" height="110" rx="14" fill="#f8fafc" stroke="#e2e8f0" stroke-width="1.5"/>
  <g transform="translate(439.37,172.00) scale(1.804878)">
<g xmlns="http://www.w3.org/2000/svg" xmlns:xlink="http://www.w3.org/1999/xlink" id="text_1">
   
   <g transform="translate(0 29) scale(0.3 -0.3)">
    <defs>
     <path id="DejaVuSans-Oblique-78" d="M 3841 3500  L 2234 1784  L 3219 0  L 2559 0  L 1819 1388  L 531 0  L -166 0  L 1556 1844  L 641 3500  L 1300 3500  L 1972 2234  L 3144 3500  L 3841 3500  z " transform="scale(0.015625)" />
     <path id="Cmsy10-30" d="M 225 347  Q 184 359 184 409  L 966 3316  Q 1003 3434 1093 3506  Q 1184 3578 1300 3578  Q 1450 3578 1564 3479  Q 1678 3381 1678 3231  Q 1678 3166 1644 3084  L 488 319  Q 466 275 428 275  Q 394 275 320 306  Q 247 338 225 347  z " transform="scale(0.015625)" />
     <path id="DejaVuSans-3d" d="M 678 2906  L 4684 2906  L 4684 2381  L 678 2381  L 678 2906  z M 678 1631  L 4684 1631  L 4684 1100  L 678 1100  L 678 1631  z " transform="scale(0.015625)" />
     <path id="DejaVuSans-2212" d="M 678 2272  L 4684 2272  L 4684 1741  L 678 1741  L 678 2272  z " transform="scale(0.015625)" />
     <path id="DejaVuSans-6d" d="M 3328 2828  Q 3544 3216 3844 3400  Q 4144 3584 4550 3584  Q 5097 3584 5394 3201  Q 5691 2819 5691 2113  L 5691 0  L 5113 0  L 5113 2094  Q 5113 2597 4934 2840  Q 4756 3084 4391 3084  Q 3944 3084 3684 2787  Q 3425 2491 3425 1978  L 3425 0  L 2847 0  L 2847 2094  Q 2847 2600 2669 2842  Q 2491 3084 2119 3084  Q 1678 3084 1418 2786  Q 1159 2488 1159 1978  L 1159 0  L 581 0  L 581 3500  L 1159 3500  L 1159 2956  Q 1356 3278 1631 3431  Q 1906 3584 2284 3584  Q 2666 3584 2933 3390  Q 3200 3197 3328 2828  z " transform="scale(0.015625)" />
     <path id="DejaVuSans-69" d="M 603 3500  L 1178 3500  L 1178 0  L 603 0  L 603 3500  z M 603 4863  L 1178 4863  L 1178 4134  L 603 4134  L 603 4863  z " transform="scale(0.015625)" />
     <path id="DejaVuSans-6e" d="M 3513 2113  L 3513 0  L 2938 0  L 2938 2094  Q 2938 2591 2744 2837  Q 2550 3084 2163 3084  Q 1697 3084 1428 2787  Q 1159 2491 1159 1978  L 1159 0  L 581 0  L 581 3500  L 1159 3500  L 1159 2956  Q 1366 3272 1645 3428  Q 1925 3584 2291 3584  Q 2894 3584 3203 3211  Q 3513 2838 3513 2113  z " transform="scale(0.015625)" />
     <path id="DejaVuSans-61" d="M 2194 1759  Q 1497 1759 1228 1600  Q 959 1441 959 1056  Q 959 750 1161 570  Q 1363 391 1709 391  Q 2188 391 2477 730  Q 2766 1069 2766 1631  L 2766 1759  L 2194 1759  z M 3341 1997  L 3341 0  L 2766 0  L 2766 531  Q 2569 213 2275 61  Q 1981 -91 1556 -91  Q 1019 -91 701 211  Q 384 513 384 1019  Q 384 1609 779 1909  Q 1175 2209 1959 2209  L 2766 2209  L 2766 2266  Q 2766 2663 2505 2880  Q 2244 3097 1772 3097  Q 1472 3097 1187 3025  Q 903 2953 641 2809  L 641 3341  Q 956 3463 1253 3523  Q 1550 3584 1831 3584  Q 2591 3584 2966 3190  Q 3341 2797 3341 1997  z " transform="scale(0.015625)" />
     <path id="DejaVuSans-78" d="M 3513 3500  L 2247 1797  L 3578 0  L 2900 0  L 1881 1375  L 863 0  L 184 0  L 1544 1831  L 300 3500  L 978 3500  L 1906 2253  L 2834 3500  L 3513 3500  z " transform="scale(0.015625)" />
    </defs>
    <use xlink:href="#DejaVuSans-Oblique-78" transform="translate(0 0.4375)" />
    <use xlink:href="#Cmsy10-30" transform="translate(63.645833 38.71875) scale(0.7)" />
    <use xlink:href="#DejaVuSans-3d" transform="translate(105.105794 0.4375)" />
    <use xlink:href="#DejaVuSans-Oblique-78" transform="translate(262.377279 55.71875) scale(0.7)" />
    <use xlink:href="#DejaVuSans-2212" transform="translate(317.440755 55.71875) scale(0.7)" />
    <use xlink:href="#DejaVuSans-Oblique-78" transform="translate(389.730794 55.71875) scale(0.7)" />
    <use xlink:href="#DejaVuSans-6d" transform="translate(431.156576 44.234375) scale(0.49)" />
    <use xlink:href="#DejaVuSans-69" transform="translate(478.888509 44.234375) scale(0.49)" />
    <use xlink:href="#DejaVuSans-6e" transform="translate(492.502279 44.234375) scale(0.49)" />
    <use xlink:href="#DejaVuSans-Oblique-78" transform="translate(208.377279 -25.296875) scale(0.7)" />
    <use xlink:href="#DejaVuSans-6d" transform="translate(249.80306 -36.78125) scale(0.49)" />
    <use xlink:href="#DejaVuSans-61" transform="translate(297.534993 -36.78125) scale(0.49)" />
    <use xlink:href="#DejaVuSans-78" transform="translate(327.561849 -36.78125) scale(0.49)" />
    <use xlink:href="#DejaVuSans-2212" transform="translate(372.111654 -25.296875) scale(0.7)" />
    <use xlink:href="#DejaVuSans-Oblique-78" transform="translate(444.401693 -25.296875) scale(0.7)" />
    <use xlink:href="#DejaVuSans-6d" transform="translate(485.827474 -36.78125) scale(0.49)" />
    <use xlink:href="#DejaVuSans-69" transform="translate(533.559408 -36.78125) scale(0.49)" />
    <use xlink:href="#DejaVuSans-6e" transform="translate(547.173177 -36.78125) scale(0.49)" />
    <path d="M 208.377279 19.234375  L 208.377279 25.484375  L 580.142904 25.484375  L 580.142904 19.234375  L 208.377279 19.234375  z " />
   </g>
  </g>
 
  </g>
</svg>
