<?xml version="1.0" encoding="UTF-8"?>
<svg xmlns="http://www.w3.org/2000/svg" xmlns:xlink="http://www.w3.org/1999/xlink" width="1200" height="300" viewBox="0 0 1200 300" version="1.1">
  <defs>
    <clipPath id="cardClip">
      <rect x="12" y="12" width="1176" height="276" rx="20" />
    </clipPath>
    <style type="text/css">*{stroke-linejoin: round; stroke-linecap: butt}</style>
  </defs>
  <rect x="12" y="12" width="1176" height="276" rx="20" fill="#ffffff" stroke="#d0d7de" stroke-width="2"/>
  <text x="44" y="60" font-family="Segoe UI, Arial, sans-serif" font-size="34" font-weight="700" fill="#0f172a">Softmax Probability</text>
  <text x="44" y="96" font-family="Segoe UI, Arial, sans-serif" font-size="17" fill="#475569">Convert logits into a normalized probability distribution over output</text>
  <text x="44" y="118" font-family="Segoe UI, Arial, sans-serif" font-size="17" fill="#475569">classes.</text>
  <line x1="44" y1="136" x2="1156" y2="136" stroke="#e2e8f0" stroke-width="2"/>
  <rect x="44" y="154" width="1112" height="110" rx="14" fill="#f8fafc" stroke="#e2e8f0" stroke-width="1.5"/>
  <g transform="translate(541.42,172.00) scale(0.880952)">
<g xmlns="http://www.w3.org/2000/svg" xmlns:xlink="http://www.w3.org/1999/xlink" id="text_1">
   
   <g transform="translate(0 30) scale(0.3 -0.3)">
    <defs>
     <path id="DejaVuSans-Oblique-70" d="M 3175 2156  Q 3175 2616 2975 2859  Q 2775 3103 2400 3103  Q 2144 3103 1911 2972  Q 1678 2841 1497 2591  Q 1319 2344 1212 1994  Q 1106 1644 1106 1300  Q 1106 863 1306 627  Q 1506 391 1875 391  Q 2147 391 2380 519  Q 2613 647 2778 891  Q 2956 1147 3065 1494  Q 3175 1841 3175 2156  z M 1394 2969  Q 1625 3272 1939 3428  Q 2253 3584 2638 3584  Q 3175 3584 3472 3232  Q 3769 2881 3769 2247  Q 3769 1728 3584 1258  Q 3400 788 3053 416  Q 2822 169 2531 39  Q 2241 -91 1919 -91  Q 1547 -91 1294 64  Q 1041 219 916 525  L 556 -1331  L -19 -1331  L 922 3500  L 1497 3500  L 1394 2969  z " transform="scale(0.015625)" />
     <path id="DejaVuSans-Oblique-63" d="M 3431 3366  L 3316 2797  Q 3109 2947 2876 3022  Q 2644 3097 2394 3097  Q 2119 3097 1870 3000  Q 1622 2903 1453 2725  Q 1184 2453 1037 2087  Q 891 1722 891 1331  Q 891 859 1127 628  Q 1363 397 1844 397  Q 2081 397 2348 469  Q 2616 541 2906 684  L 2797 116  Q 2547 13 2283 -39  Q 2019 -91 1741 -91  Q 1044 -91 669 257  Q 294 606 294 1253  Q 294 1797 489 2255  Q 684 2713 1069 3078  Q 1331 3328 1684 3456  Q 2038 3584 2456 3584  Q 2700 3584 2940 3529  Q 3181 3475 3431 3366  z " transform="scale(0.015625)" />
     <path id="DejaVuSans-3d" d="M 678 2906  L 4684 2906  L 4684 2381  L 678 2381  L 678 2906  z M 678 1631  L 4684 1631  L 4684 1100  L 678 1100  L 678 1631  z " transform="scale(0.015625)" />
     <path id="DejaVuSans-Oblique-65" d="M 3078 2063  Q 3088 2113 3092 2166  Q 3097 2219 3097 2272  Q 3097 2653 2873 2875  Q 2650 3097 2266 3097  Q 1838 3097 1509 2826  Q 1181 2556 1013 2059  L 3078 2063  z M 3578 1613  L 903 1613  Q 884 1494 878 1425  Q 872 1356 872 1306  Q 872 872 1139 634  Q 1406 397 1894 397  Q 2269 397 2603 481  Q 2938 566 3225 728  L 3116 159  Q 2806 34 2476 -28  Q 2147 -91 1806 -91  Q 1078 -91 686 257  Q 294 606 294 1247  Q 294 1794 489 2264  Q 684 2734 1063 3103  Q 1306 3334 1642 3459  Q 1978 3584 2356 3584  Q 2950 3584 3301 3228  Q 3653 2872 3653 2272  Q 3653 2128 3634 1964  Q 3616 1800 3578 1613  z " transform="scale(0.015625)" />
     <path id="DejaVuSans-Oblique-7a" d="M 744 3500  L 3475 3500  L 3372 2975  L 738 459  L 2913 459  L 2822 0  L -19 0  L 84 525  L 2719 3041  L 653 3041  L 744 3500  z " transform="scale(0.015625)" />
     <path id="DejaVuSans-Oblique-43" d="M 4447 4306  L 4319 3641  Q 4019 3944 3683 4091  Q 3347 4238 2956 4238  Q 2422 4238 2017 3981  Q 1613 3725 1319 3200  Q 1131 2863 1032 2486  Q 934 2109 934 1728  Q 934 1091 1264 756  Q 1594 422 2222 422  Q 2656 422 3056 561  Q 3456 700 3834 978  L 3688 231  Q 3316 72 2936 -9  Q 2556 -91 2175 -91  Q 1278 -91 773 396  Q 269 884 269 1753  Q 269 2309 461 2846  Q 653 3384 1013 3828  Q 1394 4300 1883 4525  Q 2372 4750 3022 4750  Q 3422 4750 3780 4639  Q 4138 4528 4447 4306  z " transform="scale(0.015625)" />
     <path id="DejaVuSansDisplay-2211" d="M 244 6509  L 5803 6509  L 5803 5656  L 1566 5656  L 4534 2488  L 1469 -888  L 5919 -888  L 5919 -1738  L 109 -1738  L 109 -1078  L 3316 2463  L 244 5728  L 244 6509  z " transform="scale(0.015625)" />
     <path id="DejaVuSans-Oblique-72" d="M 2853 2969  Q 2766 3016 2653 3041  Q 2541 3066 2413 3066  Q 1953 3066 1609 2717  Q 1266 2369 1153 1784  L 800 0  L 225 0  L 909 3500  L 1484 3500  L 1375 2956  Q 1603 3259 1920 3421  Q 2238 3584 2597 3584  Q 2691 3584 2781 3573  Q 2872 3563 2963 3538  L 2853 2969  z " transform="scale(0.015625)" />
     <path id="DejaVuSans-31" d="M 794 531  L 1825 531  L 1825 4091  L 703 3866  L 703 4441  L 1819 4666  L 2450 4666  L 2450 531  L 3481 531  L 3481 0  L 794 0  L 794 531  z " transform="scale(0.015625)" />
    </defs>
    <use xlink:href="#DejaVuSans-Oblique-70" transform="translate(0 0.614063)" />
    <use xlink:href="#DejaVuSans-Oblique-63" transform="translate(63.476562 -15.792187) scale(0.7)" />
    <use xlink:href="#DejaVuSans-3d" transform="translate(124.179688 0.614063)" />
    <use xlink:href="#DejaVuSans-Oblique-65" transform="translate(280.451172 45.40625) scale(0.7)" />
    <use xlink:href="#DejaVuSans-Oblique-7a" transform="translate(326.772505 72.203125) scale(0.49)" />
    <use xlink:href="#DejaVuSans-Oblique-63" transform="translate(352.49272 64.164062) scale(0.343)" />
    <use xlink:href="#DejaVuSans-Oblique-43" transform="translate(266.451172 -23.20625) scale(0.49)" />
    <use xlink:href="#DejaVuSansDisplay-2211" transform="translate(251.451172 -108.220156) scale(0.7)" />
    <use xlink:href="#DejaVuSans-Oblique-72" transform="translate(227.451172 -176.078594) scale(0.49)" />
    <use xlink:href="#DejaVuSans-3d" transform="translate(257.143066 -176.078594) scale(0.49)" />
    <use xlink:href="#DejaVuSans-31" transform="translate(307.746094 -176.078594) scale(0.49)" />
    <use xlink:href="#DejaVuSans-Oblique-65" transform="translate(338.921387 -108.220156) scale(0.7)" />
    <use xlink:href="#DejaVuSans-Oblique-7a" transform="translate(385.24272 -81.423281) scale(0.49)" />
    <use xlink:href="#DejaVuSans-Oblique-72" transform="translate(410.962935 -89.462344) scale(0.343)" />
    <path d="M 227.451172 19.410938  L 227.451172 25.660938  L 428.318697 25.660938  L 428.318697 19.410938  L 227.451172 19.410938  z " />
   </g>
  </g>
 
  </g>
</svg>
