<?xml version="1.0" encoding="UTF-8"?>
<svg xmlns="http://www.w3.org/2000/svg" xmlns:xlink="http://www.w3.org/1999/xlink" width="1200" height="300" viewBox="0 0 1200 300" version="1.1">
  <defs>
    <clipPath id="cardClip">
      <rect x="12" y="12" width="1176" height="276" rx="20" />
    </clipPath>
    <style type="text/css">*{stroke-linejoin: round; stroke-linecap: butt}</style>
  </defs>
  <rect x="12" y="12" width="1176" height="276" rx="20" fill="#ffffff" stroke="#d0d7de" stroke-width="2"/>
  <text x="44" y="60" font-family="Segoe UI, Arial, sans-serif" font-size="34" font-weight="700" fill="#0f172a">Spline Expansion</text>
  <text x="44" y="96" font-family="Segoe UI, Arial, sans-serif" font-size="17" fill="#475569">Represent the edge response as a weighted combination of local B-spline</text>
  <text x="44" y="118" font-family="Segoe UI, Arial, sans-serif" font-size="17" fill="#475569">basis functions.</text>
  <line x1="44" y1="136" x2="1156" y2="136" stroke="#e2e8f0" stroke-width="2"/>
  <rect x="44" y="154" width="1112" height="110" rx="14" fill="#f8fafc" stroke="#e2e8f0" stroke-width="1.5"/>
  <g transform="translate(409.53,172.00) scale(0.840909)">
<g xmlns="http://www.w3.org/2000/svg" xmlns:xlink="http://www.w3.org/1999/xlink" id="text_1">
   
   <g transform="translate(0 53) scale(0.3 -0.3)">
    <defs>
     <path id="DejaVuSans-73" d="M 2834 3397  L 2834 2853  Q 2591 2978 2328 3040  Q 2066 3103 1784 3103  Q 1356 3103 1142 2972  Q 928 2841 928 2578  Q 928 2378 1081 2264  Q 1234 2150 1697 2047  L 1894 2003  Q 2506 1872 2764 1633  Q 3022 1394 3022 966  Q 3022 478 2636 193  Q 2250 -91 1575 -91  Q 1294 -91 989 -36  Q 684 19 347 128  L 347 722  Q 666 556 975 473  Q 1284 391 1588 391  Q 1994 391 2212 530  Q 2431 669 2431 922  Q 2431 1156 2273 1281  Q 2116 1406 1581 1522  L 1381 1569  Q 847 1681 609 1914  Q 372 2147 372 2553  Q 372 3047 722 3315  Q 1072 3584 1716 3584  Q 2034 3584 2315 3537  Q 2597 3491 2834 3397  z " transform="scale(0.015625)" />
     <path id="DejaVuSans-70" d="M 1159 525  L 1159 -1331  L 581 -1331  L 581 3500  L 1159 3500  L 1159 2969  Q 1341 3281 1617 3432  Q 1894 3584 2278 3584  Q 2916 3584 3314 3078  Q 3713 2572 3713 1747  Q 3713 922 3314 415  Q 2916 -91 2278 -91  Q 1894 -91 1617 61  Q 1341 213 1159 525  z M 3116 1747  Q 3116 2381 2855 2742  Q 2594 3103 2138 3103  Q 1681 3103 1420 2742  Q 1159 2381 1159 1747  Q 1159 1113 1420 752  Q 1681 391 2138 391  Q 2594 391 2855 752  Q 3116 1113 3116 1747  z " transform="scale(0.015625)" />
     <path id="DejaVuSans-6c" d="M 603 4863  L 1178 4863  L 1178 0  L 603 0  L 603 4863  z " transform="scale(0.015625)" />
     <path id="DejaVuSans-69" d="M 603 3500  L 1178 3500  L 1178 0  L 603 0  L 603 3500  z M 603 4863  L 1178 4863  L 1178 4134  L 603 4134  L 603 4863  z " transform="scale(0.015625)" />
     <path id="DejaVuSans-6e" d="M 3513 2113  L 3513 0  L 2938 0  L 2938 2094  Q 2938 2591 2744 2837  Q 2550 3084 2163 3084  Q 1697 3084 1428 2787  Q 1159 2491 1159 1978  L 1159 0  L 581 0  L 581 3500  L 1159 3500  L 1159 2956  Q 1366 3272 1645 3428  Q 1925 3584 2291 3584  Q 2894 3584 3203 3211  Q 3513 2838 3513 2113  z " transform="scale(0.015625)" />
     <path id="DejaVuSans-65" d="M 3597 1894  L 3597 1613  L 953 1613  Q 991 1019 1311 708  Q 1631 397 2203 397  Q 2534 397 2845 478  Q 3156 559 3463 722  L 3463 178  Q 3153 47 2828 -22  Q 2503 -91 2169 -91  Q 1331 -91 842 396  Q 353 884 353 1716  Q 353 2575 817 3079  Q 1281 3584 2069 3584  Q 2775 3584 3186 3129  Q 3597 2675 3597 1894  z M 3022 2063  Q 3016 2534 2758 2815  Q 2500 3097 2075 3097  Q 1594 3097 1305 2825  Q 1016 2553 972 2059  L 3022 2063  z " transform="scale(0.015625)" />
     <path id="DejaVuSans-Oblique-69" d="M 1172 4863  L 1747 4863  L 1606 4134  L 1031 4134  L 1172 4863  z M 909 3500  L 1484 3500  L 800 0  L 225 0  L 909 3500  z " transform="scale(0.015625)" />
     <path id="DejaVuSans-2c" d="M 750 794  L 1409 794  L 1409 256  L 897 -744  L 494 -744  L 750 256  L 750 794  z " transform="scale(0.015625)" />
     <path id="DejaVuSans-Oblique-6f" d="M 1625 -91  Q 1009 -91 651 289  Q 294 669 294 1325  Q 294 1706 417 2101  Q 541 2497 738 2766  Q 1047 3184 1428 3384  Q 1809 3584 2291 3584  Q 2888 3584 3255 3212  Q 3622 2841 3622 2241  Q 3622 1825 3500 1412  Q 3378 1000 3181 728  Q 2875 309 2494 109  Q 2113 -91 1625 -91  z M 891 1344  Q 891 869 1089 633  Q 1288 397 1691 397  Q 2269 397 2648 901  Q 3028 1406 3028 2181  Q 3028 2634 2825 2865  Q 2622 3097 2228 3097  Q 1903 3097 1650 2945  Q 1397 2794 1197 2484  Q 1050 2253 970 1956  Q 891 1659 891 1344  z " transform="scale(0.015625)" />
     <path id="DejaVuSans-28" d="M 1984 4856  Q 1566 4138 1362 3434  Q 1159 2731 1159 2009  Q 1159 1288 1364 580  Q 1569 -128 1984 -844  L 1484 -844  Q 1016 -109 783 600  Q 550 1309 550 2009  Q 550 2706 781 3412  Q 1013 4119 1484 4856  L 1984 4856  z " transform="scale(0.015625)" />
     <path id="DejaVuSans-Oblique-78" d="M 3841 3500  L 2234 1784  L 3219 0  L 2559 0  L 1819 1388  L 531 0  L -166 0  L 1556 1844  L 641 3500  L 1300 3500  L 1972 2234  L 3144 3500  L 3841 3500  z " transform="scale(0.015625)" />
     <path id="DejaVuSans-29" d="M 513 4856  L 1013 4856  Q 1481 4119 1714 3412  Q 1947 2706 1947 2009  Q 1947 1309 1714 600  Q 1481 -109 1013 -844  L 513 -844  Q 928 -128 1133 580  Q 1338 1288 1338 2009  Q 1338 2731 1133 3434  Q 928 4138 513 4856  z " transform="scale(0.015625)" />
     <path id="DejaVuSans-3d" d="M 678 2906  L 4684 2906  L 4684 2381  L 678 2381  L 678 2906  z M 678 1631  L 4684 1631  L 4684 1100  L 678 1100  L 678 1631  z " transform="scale(0.015625)" />
     <path id="DejaVuSans-Oblique-47" d="M 3494 697  L 3738 1919  L 2700 1919  L 2797 2438  L 4453 2438  L 4050 384  Q 3634 156 3143 32  Q 2653 -91 2156 -91  Q 1278 -91 783 396  Q 288 884 288 1753  Q 288 2475 589 3126  Q 891 3778 1422 4213  Q 1756 4484 2153 4617  Q 2550 4750 3034 4750  Q 3472 4750 3873 4639  Q 4275 4528 4641 4306  L 4513 3634  Q 4231 3928 3853 4083  Q 3475 4238 3047 4238  Q 2550 4238 2172 4048  Q 1794 3859 1497 3463  Q 1244 3125 1098 2667  Q 953 2209 953 1734  Q 953 1081 1287 751  Q 1622 422 2284 422  Q 2616 422 2925 492  Q 3234 563 3494 697  z " transform="scale(0.015625)" />
     <path id="DejaVuSans-2b" d="M 2944 4013  L 2944 2272  L 4684 2272  L 4684 1741  L 2944 1741  L 2944 0  L 2419 0  L 2419 1741  L 678 1741  L 678 2272  L 2419 2272  L 2419 4013  L 2944 4013  z " transform="scale(0.015625)" />
     <path id="DejaVuSans-Oblique-6b" d="M 1172 4863  L 1747 4863  L 1197 2028  L 3169 3500  L 3916 3500  L 1716 1825  L 3322 0  L 2625 0  L 1131 1709  L 800 0  L 225 0  L 1172 4863  z " transform="scale(0.015625)" />
     <path id="DejaVuSans-2212" d="M 678 2272  L 4684 2272  L 4684 1741  L 678 1741  L 678 2272  z " transform="scale(0.015625)" />
     <path id="DejaVuSans-31" d="M 794 531  L 1825 531  L 1825 4091  L 703 3866  L 703 4441  L 1819 4666  L 2450 4666  L 2450 531  L 3481 531  L 3481 0  L 794 0  L 794 531  z " transform="scale(0.015625)" />
     <path id="DejaVuSansDisplay-2211" d="M 244 6509  L 5803 6509  L 5803 5656  L 1566 5656  L 4534 2488  L 1469 -888  L 5919 -888  L 5919 -1738  L 109 -1738  L 109 -1078  L 3316 2463  L 244 5728  L 244 6509  z " transform="scale(0.015625)" />
     <path id="DejaVuSans-Oblique-6a" d="M 928 3500  L 1503 3500  L 813 -63  L 809 -78  Q 694 -675 544 -897  Q 403 -1106 132 -1218  Q -138 -1331 -506 -1331  L -722 -1331  L -628 -844  L -481 -844  Q -144 -844 -1 -703  Q 141 -563 238 -63  L 928 3500  z M 1197 4863  L 1772 4863  L 1631 4134  L 1056 4134  L 1197 4863  z " transform="scale(0.015625)" />
     <path id="DejaVuSans-30" d="M 2034 4250  Q 1547 4250 1301 3770  Q 1056 3291 1056 2328  Q 1056 1369 1301 889  Q 1547 409 2034 409  Q 2525 409 2770 889  Q 3016 1369 3016 2328  Q 3016 3291 2770 3770  Q 2525 4250 2034 4250  z M 2034 4750  Q 2819 4750 3233 4129  Q 3647 3509 3647 2328  Q 3647 1150 3233 529  Q 2819 -91 2034 -91  Q 1250 -91 836 529  Q 422 1150 422 2328  Q 422 3509 836 4129  Q 1250 4750 2034 4750  z " transform="scale(0.015625)" />
     <path id="DejaVuSans-Oblique-63" d="M 3431 3366  L 3316 2797  Q 3109 2947 2876 3022  Q 2644 3097 2394 3097  Q 2119 3097 1870 3000  Q 1622 2903 1453 2725  Q 1184 2453 1037 2087  Q 891 1722 891 1331  Q 891 859 1127 628  Q 1363 397 1844 397  Q 2081 397 2348 469  Q 2616 541 2906 684  L 2797 116  Q 2547 13 2283 -39  Q 2019 -91 1741 -91  Q 1044 -91 669 257  Q 294 606 294 1253  Q 294 1797 489 2255  Q 684 2713 1069 3078  Q 1331 3328 1684 3456  Q 2038 3584 2456 3584  Q 2700 3584 2940 3529  Q 3181 3475 3431 3366  z " transform="scale(0.015625)" />
     <path id="DejaVuSans-Oblique-4e" d="M 1081 4666  L 1931 4666  L 3219 666  L 4000 4666  L 4616 4666  L 3706 0  L 2853 0  L 1569 4025  L 788 0  L 172 0  L 1081 4666  z " transform="scale(0.015625)" />
    </defs>
    <use xlink:href="#DejaVuSans-73" transform="translate(0 0.3625)" />
    <use xlink:href="#DejaVuSans-70" transform="translate(52.099609 0.3625)" />
    <use xlink:href="#DejaVuSans-6c" transform="translate(115.576172 0.3625)" />
    <use xlink:href="#DejaVuSans-69" transform="translate(143.359375 0.3625)" />
    <use xlink:href="#DejaVuSans-6e" transform="translate(171.142578 0.3625)" />
    <use xlink:href="#DejaVuSans-65" transform="translate(234.521484 0.3625)" />
    <use xlink:href="#DejaVuSans-Oblique-69" transform="translate(297.001953 -16.04375) scale(0.7)" />
    <use xlink:href="#DejaVuSans-2c" transform="translate(316.450195 -16.04375) scale(0.7)" />
    <use xlink:href="#DejaVuSans-Oblique-6f" transform="translate(352.338867 -16.04375) scale(0.7)" />
    <use xlink:href="#DejaVuSans-28" transform="translate(397.900391 0.3625)" />
    <use xlink:href="#DejaVuSans-Oblique-78" transform="translate(436.914062 0.3625)" />
    <use xlink:href="#DejaVuSans-29" transform="translate(496.09375 0.3625)" />
    <use xlink:href="#DejaVuSans-3d" transform="translate(554.589844 0.3625)" />
    <use xlink:href="#DejaVuSans-Oblique-47" transform="translate(657.861328 121.810937) scale(0.7)" />
    <use xlink:href="#DejaVuSans-2b" transform="translate(725.742188 121.810937) scale(0.7)" />
    <use xlink:href="#DejaVuSans-Oblique-6b" transform="translate(798.032227 121.810937) scale(0.7)" />
    <use xlink:href="#DejaVuSans-2212" transform="translate(852.207031 121.810937) scale(0.7)" />
    <use xlink:href="#DejaVuSans-31" transform="translate(924.49707 121.810937) scale(0.7)" />
    <use xlink:href="#DejaVuSansDisplay-2211" transform="translate(767.861328 0.3625)" />
    <use xlink:href="#DejaVuSans-Oblique-6a" transform="translate(738.861328 -98.732813) scale(0.7)" />
    <use xlink:href="#DejaVuSans-3d" transform="translate(771.947266 -98.732813) scale(0.7)" />
    <use xlink:href="#DejaVuSans-30" transform="translate(844.237305 -98.732813) scale(0.7)" />
    <use xlink:href="#DejaVuSans-Oblique-63" transform="translate(969.033203 0.3625)" />
    <use xlink:href="#DejaVuSans-Oblique-69" transform="translate(1024.013672 -16.04375) scale(0.7)" />
    <use xlink:href="#DejaVuSans-2c" transform="translate(1043.461914 -16.04375) scale(0.7)" />
    <use xlink:href="#DejaVuSans-Oblique-6f" transform="translate(1079.350586 -16.04375) scale(0.7)" />
    <use xlink:href="#DejaVuSans-2c" transform="translate(1122.177734 -16.04375) scale(0.7)" />
    <use xlink:href="#DejaVuSans-Oblique-6a" transform="translate(1158.066406 -16.04375) scale(0.7)" />
    <use xlink:href="#DejaVuSans-Oblique-4e" transform="translate(1196.4847 0.3625)" />
    <use xlink:href="#DejaVuSans-Oblique-6a" transform="translate(1271.289387 -16.04375) scale(0.7)" />
    <use xlink:href="#DejaVuSans-2c" transform="translate(1290.737629 -16.04375) scale(0.7)" />
    <use xlink:href="#DejaVuSans-Oblique-6b" transform="translate(1326.626301 -16.04375) scale(0.7)" />
    <use xlink:href="#DejaVuSans-28" transform="translate(1369.897786 0.3625)" />
    <use xlink:href="#DejaVuSans-Oblique-78" transform="translate(1408.911458 0.3625)" />
    <use xlink:href="#DejaVuSans-29" transform="translate(1468.091145 0.3625)" />
   </g>
  </g>
 
  </g>
</svg>
